<svg xmlns="http://www.w3.org/2000/svg" xmlns:xlink="http://www.w3.org/1999/xlink" width="250" zoomAndPan="magnify" viewBox="0 0 187.5 187.499992" height="250" preserveAspectRatio="xMidYMid meet" version="1.0"><defs><clipPath id="7a3df934d6"><path d="M 11.265625 11.265625 L 176.265625 11.265625 L 176.265625 176.265625 L 11.265625 176.265625 Z M 11.265625 11.265625 " clip-rule="nonzero"/></clipPath></defs><g clip-path="url(#7a3df934d6)"><path fill="#446818" d="M 176.265625 151.171875 C 176.265625 165.019531 165.042969 176.246094 151.195312 176.246094 L 36.34375 176.246094 C 22.496094 176.246094 11.273438 165.019531 11.273438 151.171875 L 11.273438 36.324219 C 11.273438 22.476562 22.496094 11.25 36.34375 11.25 L 151.195312 11.25 C 165.039062 11.25 176.265625 22.476562 176.265625 36.324219 Z M 176.265625 151.171875 " fill-opacity="1" fill-rule="nonzero"/></g><path fill="#ffffff" d="M 120.597656 106.570312 L 123.265625 85.882812 L 102.777344 85.882812 L 102.777344 72.671875 C 102.777344 66.683594 104.449219 62.601562 113.035156 62.601562 L 123.984375 62.59375 L 123.984375 44.09375 C 122.09375 43.839844 115.59375 43.277344 108.023438 43.277344 C 92.226562 43.277344 81.417969 52.917969 81.417969 70.625 L 81.417969 85.882812 L 63.554688 85.882812 L 63.554688 106.570312 L 81.417969 106.570312 L 81.417969 159.648438 L 102.777344 159.648438 L 102.777344 106.570312 Z M 120.597656 106.570312 " fill-opacity="1" fill-rule="nonzero"/></svg>