<svg xmlns="http://www.w3.org/2000/svg" xmlns:xlink="http://www.w3.org/1999/xlink" width="250" zoomAndPan="magnify" viewBox="0 0 187.5 187.499992" height="250" preserveAspectRatio="xMidYMid meet" version="1.0"><defs><clipPath id="60196dea2d"><path d="M 13.191406 13.191406 L 174.441406 13.191406 L 174.441406 174.441406 L 13.191406 174.441406 Z M 13.191406 13.191406 " clip-rule="nonzero"/></clipPath></defs><g clip-path="url(#60196dea2d)"><path fill="#446818" d="M 60.605469 13.191406 C 34.582031 13.191406 13.191406 34.550781 13.191406 60.605469 L 13.191406 127.03125 C 13.191406 153.054688 34.550781 174.441406 60.605469 174.441406 L 127.03125 174.441406 C 153.054688 174.441406 174.441406 153.085938 174.441406 127.03125 L 174.441406 60.605469 C 174.441406 34.582031 153.085938 13.191406 127.03125 13.191406 Z M 60.605469 27.851562 L 127.03125 27.851562 C 145.152344 27.851562 159.785156 42.484375 159.785156 60.605469 L 159.785156 127.03125 C 159.785156 145.152344 145.152344 159.785156 127.03125 159.785156 L 60.605469 159.785156 C 42.484375 159.785156 27.851562 145.152344 27.851562 127.03125 L 27.851562 60.605469 C 27.851562 42.484375 42.484375 27.851562 60.605469 27.851562 Z M 137.109375 43.886719 C 133.414062 43.886719 130.464844 46.835938 130.464844 50.527344 C 130.464844 54.222656 133.414062 57.171875 137.109375 57.171875 C 140.800781 57.171875 143.75 54.222656 143.75 50.527344 C 143.75 46.835938 140.800781 43.886719 137.109375 43.886719 Z M 93.816406 49.839844 C 69.625 49.839844 49.839844 69.625 49.839844 93.816406 C 49.839844 118.011719 69.625 137.796875 93.816406 137.796875 C 118.011719 137.796875 137.796875 118.011719 137.796875 93.816406 C 137.796875 69.625 118.011719 49.839844 93.816406 49.839844 Z M 93.816406 64.5 C 110.109375 64.5 123.136719 77.527344 123.136719 93.816406 C 123.136719 110.109375 110.109375 123.136719 93.816406 123.136719 C 77.527344 123.136719 64.5 110.109375 64.5 93.816406 C 64.5 77.527344 77.527344 64.5 93.816406 64.5 Z M 93.816406 64.5 " fill-opacity="1" fill-rule="nonzero"/></g></svg>