<svg xmlns="http://www.w3.org/2000/svg" xmlns:xlink="http://www.w3.org/1999/xlink" width="250" zoomAndPan="magnify" viewBox="0 0 187.5 187.499992" height="250" preserveAspectRatio="xMidYMid meet" version="1.0"><defs><clipPath id="8f97a1727f"><path d="M 0 1 L 187 1 L 187 182.25 L 0 182.25 Z M 0 1 " clip-rule="nonzero"/></clipPath></defs><g clip-path="url(#8f97a1727f)"><path fill="#446818" d="M 13.410156 60.617188 C 17.515625 49.640625 23.691406 39.679688 31.46875 31.214844 C 36.78125 24.519531 42.902344 18.75 50.484375 14.015625 C 55.0625 11.15625 60.199219 9.101562 64.5 5.804688 C 65.542969 5.003906 71.226562 -0.0078125 70.933594 1.679688 C 70.304688 5.339844 67.542969 8.835938 65.890625 12.09375 C 62.144531 19.472656 58.042969 26.292969 51.789062 31.796875 C 38.820312 43.214844 23.34375 49.710938 15.242188 64.242188 C 13.402344 71.214844 12.421875 78.539062 12.421875 86.09375 C 12.421875 133.210938 50.59375 171.464844 97.617188 171.464844 C 144.636719 171.464844 182.8125 133.210938 182.8125 86.09375 C 182.8125 60.203125 171.285156 36.988281 153.09375 21.320312 C 174.035156 37.8125 187.5 63.429688 187.5 92.171875 C 187.5 141.882812 147.226562 182.242188 97.617188 182.242188 C 48.007812 182.242188 7.730469 141.882812 7.730469 92.171875 C 7.730469 84.078125 8.800781 76.226562 10.800781 68.761719 C 9.558594 62.296875 5.523438 56.574219 3.664062 50.066406 C 1.226562 41.515625 2.226562 32.449219 1.945312 23.667969 C 1.8125 19.359375 0.425781 15.25 0.25 10.953125 C 0.230469 10.511719 0.0078125 7.011719 0.519531 6.953125 C 0.574219 6.949219 0.867188 7.917969 0.914062 8.046875 C 1.292969 9.066406 1.730469 10.0625 2.222656 11.035156 C 3.542969 13.648438 5.351562 16.042969 7.0625 18.410156 C 9.753906 22.132812 12 25.835938 13.367188 30.246094 C 14.699219 34.535156 14.726562 39.484375 14.691406 43.933594 C 14.652344 49.644531 14.1875 55.113281 13.410156 60.617188 Z M 13.410156 60.617188 " fill-opacity="1" fill-rule="evenodd"/></g></svg>