<svg xmlns="http://www.w3.org/2000/svg" xmlns:xlink="http://www.w3.org/1999/xlink" width="250" zoomAndPan="magnify" viewBox="0 0 187.5 187.499992" height="250" preserveAspectRatio="xMidYMid meet" version="1.0"><defs><clipPath id="c3397525da"><path d="M 0 1 L 187 1 L 187 182.25 L 0 182.25 Z M 0 1 " clip-rule="nonzero"/></clipPath><clipPath id="a64a377723"><path d="M 21.828125 56.804688 L 146 56.804688 L 146 154.304688 L 21.828125 154.304688 Z M 21.828125 56.804688 " clip-rule="nonzero"/></clipPath></defs><g clip-path="url(#c3397525da)"><path fill="#000000" d="M 13.410156 60.617188 C 17.515625 49.640625 23.691406 39.679688 31.46875 31.214844 C 36.78125 24.519531 42.902344 18.75 50.484375 14.015625 C 55.0625 11.15625 60.199219 9.101562 64.5 5.804688 C 65.542969 5.003906 71.226562 -0.0078125 70.933594 1.679688 C 70.304688 5.339844 67.542969 8.835938 65.890625 12.09375 C 62.144531 19.472656 58.042969 26.292969 51.789062 31.796875 C 38.820312 43.214844 23.34375 49.710938 15.242188 64.242188 C 13.402344 71.214844 12.421875 78.539062 12.421875 86.09375 C 12.421875 133.210938 50.59375 171.464844 97.617188 171.464844 C 144.636719 171.464844 182.8125 133.210938 182.8125 86.09375 C 182.8125 60.203125 171.285156 36.988281 153.09375 21.320312 C 174.035156 37.8125 187.5 63.429688 187.5 92.171875 C 187.5 141.882812 147.226562 182.242188 97.617188 182.242188 C 48.007812 182.242188 7.730469 141.882812 7.730469 92.171875 C 7.730469 84.078125 8.800781 76.226562 10.800781 68.761719 C 9.558594 62.296875 5.523438 56.574219 3.664062 50.066406 C 1.226562 41.515625 2.226562 32.449219 1.945312 23.667969 C 1.8125 19.359375 0.425781 15.25 0.25 10.953125 C 0.230469 10.511719 0.0078125 7.011719 0.519531 6.953125 C 0.574219 6.949219 0.867188 7.917969 0.914062 8.046875 C 1.292969 9.066406 1.730469 10.0625 2.222656 11.035156 C 3.542969 13.648438 5.351562 16.042969 7.0625 18.410156 C 9.753906 22.132812 12 25.835938 13.367188 30.246094 C 14.699219 34.535156 14.726562 39.484375 14.691406 43.933594 C 14.652344 49.644531 14.1875 55.113281 13.410156 60.617188 Z M 13.410156 60.617188 " fill-opacity="1" fill-rule="evenodd"/></g><g clip-path="url(#a64a377723)"><path fill="#000000" d="M 143.648438 136.53125 C 143.648438 136.53125 141.015625 126.773438 140.132812 124.933594 C 139.257812 123.09375 136.511719 115.070312 136.511719 115.070312 C 136.511719 115.070312 134.550781 107.691406 134.488281 107.273438 C 133.3125 98.984375 128.378906 92.152344 128.378906 92.152344 C 128.972656 91.605469 128.882812 90.894531 128.882812 90.464844 C 128.882812 90.035156 127.808594 89.386719 127.808594 89.386719 C 127 89.171875 126.695312 88.664062 126.695312 88.664062 C 127.203125 87.371094 125.859375 86.710938 125.859375 86.710938 C 125.949219 86.050781 125.558594 85.507812 125.558594 85.507812 C 125.671875 84.492188 124.988281 83.972656 124.988281 83.972656 C 124.507812 82.351562 121.875 82.476562 121.875 82.476562 C 121.128906 81.640625 119.472656 81.550781 119.472656 81.550781 C 119.382812 80.894531 118.179688 80.105469 118.179688 80.105469 C 121.207031 78.191406 117.941406 76.683594 117.941406 76.683594 C 117.523438 76.570312 117.726562 75.960938 117.726562 75.960938 C 117.699219 75 115.714844 73.769531 115.714844 73.769531 C 116.195312 68.671875 113.804688 65.933594 113.804688 65.933594 C 111.351562 62.636719 108.957031 62.15625 104.695312 62.359375 C 100.445312 62.574219 97.863281 63.894531 97.863281 63.894531 C 96.75 64.449219 95.851562 66.011719 95.851562 66.011719 L 91.324219 66.402344 C 90.210938 67.441406 91.324219 69 91.324219 69 L 90.144531 69.28125 C 89.488281 69.394531 89.652344 70.207031 89.652344 70.207031 C 88.730469 70.09375 88.628906 71.019531 88.628906 71.019531 C 88.566406 71.804688 88.300781 72.007812 88.300781 72.007812 L 87.335938 73.121094 C 86.464844 74.566406 87.578125 75.605469 87.578125 75.605469 C 90.210938 76.847656 90.132812 79.28125 90.132812 79.28125 C 90.335938 80.640625 88.855469 84.683594 88.855469 84.683594 C 88.019531 87.246094 85.539062 89.347656 85.539062 89.347656 C 83.679688 88.511719 77.394531 88.804688 75.722656 89.042969 C 74.039062 89.285156 72.875 89.109375 72.875 89.109375 C 69.042969 87.308594 61.707031 86.167969 61.707031 86.167969 C 57.847656 86.34375 55.898438 85.570312 55.898438 85.570312 L 54.203125 84.644531 C 50.738281 82.046875 44.589844 79.636719 38.402344 76.847656 C 32.214844 74.046875 31.445312 71.714844 31.445312 71.714844 C 31.507812 70.308594 31.089844 69.167969 30.695312 68.355469 C 30.304688 67.542969 30.394531 66.164062 30.394531 66.164062 C 30.546875 65.375 31.050781 64.78125 31.226562 63.15625 C 31.40625 61.535156 30.898438 61.140625 30.898438 61.140625 C 30.898438 61.140625 30.304688 60.789062 28.863281 61.027344 C 27.421875 61.269531 25.953125 61.992188 25.953125 61.992188 L 25.472656 62.449219 C 24.511719 61.128906 24.332031 59.773438 23.980469 59 C 23.625 58.226562 23.269531 57.402344 23.269531 57.402344 C 22.96875 56.945312 22.675781 56.804688 22.449219 56.820312 C 22.082031 56.832031 21.855469 57.238281 21.992188 57.566406 C 22.21875 58.113281 22.625 59.089844 22.664062 59.316406 C 22.726562 59.644531 23.054688 62.613281 23.054688 62.613281 C 23.511719 64.804688 24.382812 68.355469 24.382812 68.355469 C 27.078125 75.164062 30.230469 77.089844 30.230469 77.089844 C 30.230469 77.089844 30.429688 77.015625 35.339844 80.527344 C 40.25 84.035156 49.925781 89.511719 49.925781 89.511719 C 51.332031 90.589844 54.546875 91.730469 54.546875 91.730469 C 64.25 96.472656 74.457031 99.148438 74.457031 99.148438 L 74.066406 100.921875 C 71.28125 104.546875 71.828125 108.390625 72.230469 109.757812 C 72.625 111.140625 72.394531 113.105469 72.394531 113.105469 C 71.433594 114.664062 71.523438 116.984375 71.523438 116.984375 C 72.003906 121.585938 73.636719 124.261719 74.636719 126.339844 C 75.636719 128.417969 77.671875 133.289062 77.671875 133.289062 L 77.164062 133.199219 C 73.574219 132.804688 62.402344 132.539062 62.402344 132.539062 C 62.402344 132.539062 54.910156 132.957031 52.28125 135.175781 C 49.648438 137.394531 50.371094 141.300781 50.371094 141.300781 C 50.8125 144.621094 54.089844 146.382812 54.089844 146.382812 C 55.203125 146.863281 57.605469 147.703125 57.605469 147.703125 C 58.933594 148.183594 68.144531 150.148438 68.703125 150.300781 C 69.257812 150.464844 72.777344 151.226562 72.777344 151.226562 C 74.332031 152.265625 78.011719 152.710938 78.011719 152.710938 C 78.367188 153.34375 78.773438 153.546875 78.773438 153.546875 C 79.605469 154.066406 80.492188 153.507812 80.492188 153.507812 C 81.605469 154.269531 82.808594 154.105469 82.808594 154.105469 C 85.363281 154.304688 85.769531 153.179688 85.769531 153.179688 C 86.414062 151.859375 85.566406 150.972656 85.085938 150.339844 C 84.605469 149.703125 84.210938 149.222656 84.210938 149.222656 C 85.453125 149.300781 92.234375 149.703125 92.234375 149.703125 C 93.675781 149.871094 99.140625 150.425781 100.53125 150.667969 C 101.925781 150.910156 105 151.632812 105 151.632812 C 114.109375 153.078125 131.3125 152.785156 131.3125 152.785156 C 131.3125 152.785156 143.167969 154.027344 144.722656 148.980469 C 146.304688 143.734375 143.648438 136.53125 143.648438 136.53125 Z M 125.203125 138.6875 C 123.648438 138.460938 118.980469 138.179688 118.980469 138.179688 C 118.980469 138.179688 111.550781 137.015625 109.539062 136.976562 C 109.539062 136.976562 107.390625 130.09375 98.964844 127.898438 C 98.964844 127.898438 98.105469 127.265625 97.066406 126.886719 C 97.066406 126.886719 95.523438 124.90625 92.828125 123.464844 C 92.828125 123.464844 91.472656 122.347656 91.753906 119.164062 C 91.753906 119.164062 93.183594 112.597656 94.257812 109.746094 C 95.332031 106.894531 96.410156 102.214844 98.8125 99.628906 C 101.203125 97.042969 100.546875 93.773438 99.925781 92.214844 C 99.925781 92.214844 99.621094 91.820312 100.40625 90.894531 C 101.191406 89.96875 102.089844 87.6875 102.140625 86.574219 C 102.203125 85.457031 105.515625 90.324219 109.984375 84.773438 C 109.984375 84.773438 113.753906 85.519531 115.347656 84.023438 L 116.003906 84.023438 C 116.003906 84.023438 115.539062 87.410156 119.609375 88.777344 C 122.671875 89.804688 123.660156 93.988281 123.964844 96.003906 C 124.0625 96.726562 124.078125 97.449219 123.976562 98.171875 C 123.796875 99.453125 123.367188 101.644531 122.367188 103.496094 C 121.761719 104.613281 121.800781 105.511719 122.054688 106.183594 C 122.382812 107.046875 123.167969 107.65625 124.078125 107.820312 C 124.746094 107.945312 125.746094 108.160156 126.542969 108.464844 C 127.289062 108.746094 127.847656 109.390625 128.050781 110.164062 C 128.339844 111.316406 128.796875 113.449219 128.847656 115.667969 C 128.882812 117.25 129.011719 118.988281 129.125 120.371094 C 129.265625 121.953125 129.328125 123.539062 129.351562 125.136719 C 129.390625 129.054688 129.796875 137.015625 132.402344 139.511719 C 132.390625 139.5 126.824219 138.917969 125.203125 138.6875 Z M 125.203125 138.6875 " fill-opacity="1" fill-rule="nonzero"/></g></svg>